<svg xmlns="http://www.w3.org/2000/svg" width="37" height="37"><path d="M18.5 34.888c-1.033 0-2.081-.231-2.898-.709l-8.479-4.887c-3.453-2.328-3.669-2.683-3.669-6.336v-8.911c0-3.654.2-4.008 3.592-6.305l8.541-4.933c1.619-.94 4.163-.94 5.781 0l8.51 4.903c3.453 2.328 3.669 2.682 3.669 6.336v8.895c0 3.654-.2 4.008-3.592 6.305l-8.541 4.933c-.833.478-1.881.709-2.914.709zm0-30.463c-.648 0-1.28.123-1.727.385L8.295 9.712c-2.513 1.696-2.513 1.696-2.513 4.332v8.895c0 2.636 0 2.636 2.575 4.378l8.417 4.856c.91.524 2.559.524 3.469 0l8.479-4.903c2.498-1.696 2.498-1.696 2.498-4.332v-8.895c0-2.636 0-2.636-2.575-4.378L20.227 4.81c-.447-.262-1.079-.385-1.727-.385zm0 19.856c-3.191 0-5.781-2.59-5.781-5.781s2.59-5.781 5.781-5.781 5.781 2.59 5.781 5.781-2.59 5.781-5.781 5.781zm0-9.25c-1.912 0-3.469 1.557-3.469 3.469s1.557 3.469 3.469 3.469 3.469-1.557 3.469-3.469-1.557-3.469-3.469-3.469z"/></svg>